<?xml version="1.0" encoding="UTF-8" standalone="no"?>
<!-- Created with Inkscape (http://www.inkscape.org/) -->
<svg
   xmlns:svg="http://www.w3.org/2000/svg"
   xmlns="http://www.w3.org/2000/svg"
   version="1.0"
   width="1600"
   height="1018"
   id="svg6310">
  <path
     d="M -212.1745,841.27175 L -172.49804,712.20728 L -129.741,579.3292 L -82.757433,433.77617 L -27.25586,265.58734 L -3.5222451,187.65235 L 16.679599,108.78832 L 26.084896,49.524164 L 36.429678,-9.5172985 L 54.199298,-66.189169 L 74.756059,-122.0329 L 114.29797,-236.37644"
     id="path10"
     style="fill:none;stroke:#000000;stroke-width:3.57700539" />
  <path
     d="M -93.210082,884.16334 L -56.493586,759.52025 L -16.803211,635.28544 L 5.8801519,567.88543 L 25.383181,499.61905 L 33.728366,453.5288 L 38.291252,412.42952 L 42.99854,371.36425 L 51.776932,325.37575 L 73.808454,255.68275 L 98.421822,186.70301 L 117.15528,114.90484 L 138.75244,44.105303 L 165.94127,-11.587067 L 194.30969,-66.795775 L 236.34298,-183.51935"
     id="path12"
     style="fill:none;stroke:#000000;stroke-width:3.57700539" />
  <path
     d="M 29.159682,922.41549 L 61.018689,797.8188 L 103.81749,676.32125 L 129.87198,604.91044 L 140.87302,571.15038 L 150.2304,531.99303 L 153.88041,492.02735 L 152.48111,456.1023 L 152.69721,420.62091 L 161.19339,381.98615 L 177.56654,351.07785 L 198.12214,327.12653 L 219.42063,303.4771 L 238.02245,273.47438 L 250.66274,237.64944 L 257.15549,204.54686 L 262.54173,171.01367 L 271.8625,133.89695 L 297.3504,71.318495 L 323.23497,8.8687864 L 358.8612,-125.58207"
     id="path14"
     style="fill:none;stroke:#000000;stroke-width:3.57700539" />
  <path
     d="M 159.37473,956.37616 L 198.35063,832.98572 L 236.43112,696.06669 L 283.67914,566.73777 L 303.15201,505.58536 L 319.68116,443.59786 L 332.33583,376.31212 L 345.14703,309.06813 L 362.34834,242.44699 L 384.74461,177.47517 L 399.76354,144.7056 L 415.25526,116.8592 L 430.49562,88.916237 L 444.76036,55.856994 L 476.88381,-76.54787"
     id="path16"
     style="fill:none;stroke:#000000;stroke-width:3.57700539" />
  <path
     d="M 289.88671,991.80753 L 334.15157,851.98421 L 370.30669,718.30814 L 406.96751,599.18134 L 427.71507,536.15516 L 445.59546,472.367 L 455.08023,411.32594 L 463.50368,350.06219 L 477.98276,279.87216 L 496.89834,210.7956 L 517.72417,153.46899 L 540.3281,96.744344 L 588.60607,-39.464858"
     id="path18"
     style="fill:none;stroke:#000000;stroke-width:3.57700539" />
  <path
     d="M 418.66817,1033.9661 L 445.87614,985.12559 L 468.00681,939.11718 L 485.26264,892.0875 L 491.73191,857.46195 L 493.27146,826.23418 L 494.0925,794.83768 L 498.40616,759.70583 L 515.89859,696.29226 L 535.67011,633.39718 L 564.16552,506.13282 L 602.74243,371.1809 L 631.37703,244.60317 L 672.69121,114.38812 L 714.83121,-11.502977"
     id="path20"
     style="fill:none;stroke:#000000;stroke-width:3.57700539" />
  <path
     d="M 559.21988,1071.5409 L 574.65645,1025.9717 L 599.98197,941.90112 L 614.80845,867.16561 L 629.98984,792.52056 L 649.49111,733.18853 L 669.43433,673.97833 L 685.60448,604.26672 L 701.11703,534.3777 L 739.18361,406.16689 L 772.49476,288.09788 L 804.08468,152.04178 L 841.75226,23.979429"
     id="path22"
     style="fill:none;stroke:#000000;stroke-width:3.57700539" />
  <path
     d="M 682.12318,1109.2549 L 705.91305,1064.631 L 725.84843,1022.8085 L 742.43121,980.38524 L 752.22515,943.38662 L 757.84402,910.07111 L 768.80641,838.5948 L 801.25926,693.16704 L 824.1456,559.50953 L 849.38877,454.22217 L 890.97203,309.34186 L 904.93149,245.06187 L 920.04274,181.09857 L 960.49398,67.381353"
     id="path24"
     style="fill:none;stroke:#000000;stroke-width:3.57700539" />
  <path
     d="M 789.17353,1146.0131 L 836.1571,1006.8903 L 862.89997,943.86996 L 875.04267,914.27597 L 885.61349,879.62133 L 894.64146,828.4612 L 897.79024,782.57997 L 900.45281,736.58659 L 908.02196,685.08978 L 921.36962,634.91252 L 938.82318,585.90792 L 959.75979,537.51688 L 979.47855,488.71173 L 996.04946,423.59145 L 1008.5075,357.40642 L 1017.798,299.55729 L 1029.4824,242.27881 L 1078.6975,112.07304"
     id="path26"
     style="fill:none;stroke:#000000;stroke-width:3.57700539" />
  <path
     d="M 889.08378,1189.9022 L 920.79433,1063.1249 L 947.47573,944.01206 L 972.11577,828.99404 L 985.10735,775.56291 L 1003.6871,715.9977 L 1025.7685,662.45281 L 1052.0672,610.71034 L 1079.5245,565.57267 L 1092.2328,544.41985 L 1103.7041,518.99797 L 1112.9822,487.73917 L 1117.9408,459.32671 L 1127.9219,398.368 L 1160.0268,280.25723 L 1206.6114,152.2088"
     id="path28"
     style="fill:none;stroke:#000000;stroke-width:3.57700539" />
  <path
     d="M 994.27372,1230.1957 L 1019.2478,1092.1725 L 1025.7337,1013.5311 L 1029.1959,976.8499 L 1037.7452,936.06935 L 1054.756,880.0663 L 1073.452,831.84442 L 1096.8761,785.81815 L 1128.0704,736.40194 L 1149.0324,713.13907 L 1171.4549,695.72801 L 1192.6405,677.61755 L 1209.8915,652.25649 L 1217.5332,625.85889 L 1218.2048,601.0528 L 1217.1705,575.68905 L 1219.6946,547.61865 L 1235.4797,490.73972 L 1254.9775,434.82468 L 1295.2664,311.40177 L 1338.3297,183.37189"
     id="path30"
     style="fill:none;stroke:#000000;stroke-width:3.57700539" />
  <path
     d="M 1109.9581,1273.1661 L 1139.5669,1130.6659 L 1154.1545,1050.7928 L 1162.7853,1013.9719 L 1177.5871,973.85292 L 1190.7262,950.30602 L 1205.2932,931.27913 L 1220.4022,912.52013 L 1235.1672,889.77706 L 1275.8828,803.64825 L 1309.3888,714.2208 L 1332.6144,647.00001 L 1353.5609,578.9998 L 1382.46,480.15197 L 1399.3028,407.0739 L 1418.4666,334.69174 L 1470.1499,210.73065"
     id="path32"
     style="fill:none;stroke:#000000;stroke-width:3.57700539" />
  <path
     d="M 1232.982,1324.3437 L 1267.2117,1192.31 L 1284.8532,1129.6057 L 1307.3243,1068.6691 L 1330.5023,1023.4891 L 1358.1447,980.77959 L 1395.052,934.12134 L 1430.7936,886.71503 L 1491.6415,792.72641 L 1513.1258,745.93111 L 1520.3522,719.38922 L 1524.7468,689.53436 L 1524.1582,665.80281 L 1518.928,644.48984 L 1500.9181,605.91604 L 1483.4675,567.40575 L 1478.9365,546.17217 L 1479.3268,522.55178 L 1484.6231,499.47703 L 1493.1939,479.75952 L 1516.8766,446.21682 L 1543.81,413.56489 L 1567.4296,373.44495 L 1601.5573,249.34003"
     id="path34"
     style="fill:none;stroke:#000000;stroke-width:3.57700539" />
  <path
     d="M 1359.3417,1378.4396 L 1396.4618,1255.6615 L 1416.155,1198.5506 L 1438.792,1142.5846 L 1463.3839,1091.4789 L 1490.415,1041.5701 L 1526.3184,982.56749 L 1559.139,922.05825 L 1590.592,840.27428 L 1611.1749,755.12207 L 1616.6042,710.18245 L 1617.3604,670.08816 L 1618.2575,630.02172 L 1624.1096,585.16561 L 1634.3173,544.74429 L 1646.3609,509.9899 L 1674.2944,436.3557 L 1720.3501,302.89304"
     id="path36"
     style="fill:none;stroke:#000000;stroke-width:3.57700539" />
  <path
     d="M 1486.8658,1429.3945 L 1525.401,1309.1357 L 1567.4157,1193.4374 L 1613.6199,1078.3469 L 1665.9945,949.42165 L 1692.227,874.95638 L 1715.2513,799.44724 L 1734.7202,721.7622 L 1753.2808,643.82664 L 1795.328,496.07452 L 1838.7485,358.40389"
     id="path38"
     style="fill:none;stroke:#000000;stroke-width:3.57700539" />
  <path
     d="M -212.1745,841.27175 L -93.210082,884.16334 L 29.159682,922.41549 L 159.37473,956.37616 L 289.88671,991.80753 L 418.66817,1033.9661 L 559.21988,1071.5409 L 682.12318,1109.2549 L 789.17353,1146.0131 L 889.08378,1189.9022 L 994.27372,1230.1957 L 1109.9581,1273.1661 L 1232.982,1324.3437 L 1359.3417,1378.4396 L 1486.8658,1429.3945"
     id="path40"
     style="fill:none;stroke:#000000;stroke-width:3.57700539" />
  <path
     d="M -172.49804,712.20728 L -56.493586,759.52025 L 61.018689,797.8188 L 129.25493,817.17513 L 198.35063,832.98572 L 266.2685,842.39969 L 334.15157,851.98421 L 410.52304,869.05209 L 485.26264,892.0875 L 542.63622,916.95775 L 599.98197,941.90112 L 670.77336,962.52457 L 742.43121,980.38524 L 790.08054,991.48045 L 836.1571,1006.8903 L 859.52223,1020.3053 L 878.51223,1034.9311 L 897.48399,1049.5952 L 920.79433,1063.1249 L 969.27467,1079.5851 L 1019.2478,1092.1725 L 1079.9067,1109.9977 L 1139.5669,1130.6659 L 1204.0017,1160.1031 L 1267.2117,1192.31 L 1396.4618,1255.6615 L 1525.401,1309.1357"
     id="path42"
     style="fill:none;stroke:#000000;stroke-width:3.57700539" />
  <path
     d="M -129.741,579.3292 L -90.292457,600.23162 L -16.803211,635.28544 L 42.604187,658.56441 L 103.81749,676.32125 L 169.81288,687.76497 L 236.43112,696.06669 L 303.68903,705.58505 L 370.30669,718.30814 L 434.55652,738.24844 L 498.40616,759.70583 L 629.98984,792.52056 L 768.80641,838.5948 L 829.11847,855.16394 L 856.65812,864.38566 L 885.61349,879.62133 L 903.05043,895.91104 L 915.30063,914.29587 L 928.17284,931.44114 L 947.47573,944.01206 L 970.58898,947.56958 L 991.81713,943.52901 L 1013.442,937.74428 L 1037.7452,936.06935 L 1109.6687,947.6575 L 1142.1632,958.33516 L 1177.5871,973.85292 L 1214.2819,995.34023 L 1243.8771,1018.7157 L 1272.7616,1043.3638 L 1307.3243,1068.6691 L 1371.6924,1108.0782 L 1438.792,1142.5846 L 1567.4157,1193.4374"
     id="path44"
     style="fill:none;stroke:#000000;stroke-width:3.57700539" />
  <path
     d="M -82.757433,433.77617 L -45.740533,459.48273 L -10.698873,481.21431 L 25.383181,499.61905 L 57.58732,511.17036 L 86.92124,518.41572 L 150.2304,531.99303 L 283.67914,566.73777 L 406.96751,599.18134 L 535.67011,633.39718 L 602.26341,654.82906 L 669.43433,673.97833 L 734.88921,687.14449 L 801.25926,693.16704 L 829.7158,691.81951 L 854.74152,687.81833 L 879.71676,684.47223 L 908.02196,685.08978 L 934.03667,690.57744 L 956.16599,698.82307 L 1003.6871,715.9977 L 1037.4303,720.38369 L 1068.1979,720.71601 L 1097.806,723.79024 L 1128.0704,736.40194 L 1148.3108,752.00724 L 1163.6951,769.4113 L 1185.6916,808.05627 L 1205.6517,849.21786 L 1218.4905,869.76773 L 1235.1672,889.77706 L 1264.7128,917.76752 L 1292.9989,939.92704 L 1358.1447,980.77959 L 1422.6844,1014.4996 L 1490.415,1041.5701 L 1613.6199,1078.3469"
     id="path46"
     style="fill:none;stroke:#000000;stroke-width:3.57700539" />
  <path
     d="M -27.25586,265.58734 L 0.0002466585,287.75164 L 51.776932,325.37575 L 105.30559,355.8748 L 161.19339,381.98615 L 239.32903,415.73053 L 319.68116,443.59786 L 382.39822,458.82973 L 445.59546,472.367 L 564.16552,506.13282 L 701.11703,534.3777 L 824.1456,559.50953 L 938.82318,585.90792 L 1052.0672,610.71034 L 1132.2668,627.62457 L 1169.2771,637.22862 L 1209.8915,652.25649 L 1262.9249,678.25065 L 1309.3888,714.2208 L 1329.0104,735.91522 L 1344.1182,758.35585 L 1367.2797,803.90745 L 1391.847,847.73936 L 1408.712,868.03026 L 1430.7936,886.71503 L 1461.7045,902.96776 L 1492.073,910.59244 L 1523.8882,915.11427 L 1559.139,922.05825 L 1665.9945,949.42165"
     id="path48"
     style="fill:none;stroke:#000000;stroke-width:3.57700539" />
  <path
     d="M 16.679599,108.78832 L 44.491858,137.63401 L 98.421822,186.70301 L 165.46457,234.59994 L 238.02245,273.47438 L 290.89755,292.97625 L 345.14703,309.06813 L 403.88693,331.05966 L 463.50368,350.06219 L 532.93688,361.44968 L 602.74243,371.1809 L 671.66937,386.08509 L 739.18361,406.16689 L 794.31055,430.12494 L 849.38877,454.22217 L 913.94652,473.08672 L 979.47855,488.71173 L 1103.7041,518.99797 L 1219.6946,547.61865 L 1287.6716,560.14977 L 1319.1562,567.01381 L 1353.5609,578.9998 L 1402.0128,602.96921 L 1442.1759,628.81982 L 1524.7468,689.53436 L 1567.2319,723.4678 L 1611.1749,755.12207 L 1715.2513,799.44724"
     id="path50"
     style="fill:none;stroke:#000000;stroke-width:3.57700539" />
  <path
     d="M 36.429678,-9.5172985 L 73.082962,8.6350748 L 138.75244,44.105303 L 204.65331,90.172003 L 235.20501,112.15865 L 271.8625,133.89695 L 327.24228,158.16352 L 384.74461,177.47517 L 496.89834,210.7956 L 631.37703,244.60317 L 701.74623,267.0708 L 772.49476,288.09788 L 831.93521,297.95956 L 890.97203,309.34186 L 950.19035,332.02578 L 1008.5075,357.40642 L 1127.9219,398.368 L 1254.9775,434.82468 L 1382.46,480.15197 L 1479.3268,522.55178 L 1624.1096,585.16561 L 1753.2808,643.82664"
     id="path52"
     style="fill:none;stroke:#000000;stroke-width:3.57700539" />
  <path
     d="M 74.756059,-122.0329 L 117.46555,-103.33945 L 194.30969,-66.795775 L 258.45917,-28.34065 L 323.23497,8.8687864 L 383.50705,33.465916 L 444.76036,55.856994 L 491.96662,78.002182 L 540.3281,96.744344 L 575.02449,103.82934 L 606.22261,106.75277 L 637.56423,109.08292 L 672.69121,114.38812 L 738.64891,132.11714 L 804.08468,152.04178 L 862.69699,164.65641 L 920.04274,181.09857 L 949.97448,195.60855 L 974.89131,211.36857 L 999.74375,227.28865 L 1029.4824,242.27881 L 1093.8534,263.9351 L 1160.0268,280.25723 L 1295.2664,311.40177 L 1418.4666,334.69174 L 1494.1208,350.36955 L 1528.9998,359.53332 L 1567.4296,373.44495 L 1596.9878,387.8619 L 1621.6554,403.23184 L 1674.2944,436.3557 L 1795.328,496.07452"
     id="path54"
     style="fill:none;stroke:#000000;stroke-width:3.57700539" />
  <path
     d="M 114.29797,-236.37644 L 236.34298,-183.51935 L 358.8612,-125.58207 L 476.88381,-76.54787 L 532.27868,-56.569299 L 588.60607,-39.464858 L 651.6021,-25.045491 L 714.83121,-11.502977 L 841.75226,23.979429 L 960.49398,67.381353 L 1078.6975,112.07304 L 1206.6114,152.2088 L 1338.3297,183.37189 L 1470.1499,210.73065 L 1536.5008,227.94235 L 1601.5573,249.34003 L 1661.5104,274.77342 L 1720.3501,302.89304 L 1838.7485,358.40389"
     id="path56"
     style="fill:none;stroke:#000000;stroke-width:3.57700539" />
</svg>
